<svg xmlns="http://www.w3.org/2000/svg" xmlns:xlink="http://www.w3.org/1999/xlink" width="240" zoomAndPan="magnify" viewBox="0 0 180 89.999999" height="120" preserveAspectRatio="xMidYMid meet" version="1.0"><defs><g/><clipPath id="066d651954"><path d="M 67.261719 15.058594 L 113 15.058594 L 113 50.308594 L 67.261719 50.308594 Z M 67.261719 15.058594 " clip-rule="nonzero"/></clipPath></defs><g clip-path="url(#066d651954)"><path fill="#ffffff" d="M 112.609375 51.46875 L 112.609375 55.992188 C 111.164062 57.460938 109.152344 58.09375 107.613281 58.230469 C 107.410156 58.253906 107.183594 58.253906 106.957031 58.253906 C 106.664062 58.253906 106.390625 58.253906 106.121094 58.207031 C 104.628906 58.027344 102.707031 57.414062 101.304688 55.992188 C 99.902344 57.414062 97.980469 58.027344 96.484375 58.207031 C 96.214844 58.253906 95.941406 58.253906 95.648438 58.253906 C 95.355469 58.253906 95.082031 58.253906 94.8125 58.207031 C 93.320312 58.027344 91.398438 57.414062 89.996094 55.992188 C 88.59375 57.414062 86.671875 58.027344 85.179688 58.207031 C 84.90625 58.253906 84.636719 58.253906 84.339844 58.253906 C 84.046875 58.253906 83.777344 58.253906 83.503906 58.207031 C 82.011719 58.027344 80.089844 57.414062 78.6875 55.992188 C 77.285156 57.414062 75.363281 58.027344 73.871094 58.207031 C 73.597656 58.253906 73.328125 58.253906 73.035156 58.253906 C 72.808594 58.253906 72.582031 58.253906 72.378906 58.230469 C 70.839844 58.09375 68.828125 57.460938 67.378906 55.992188 L 67.378906 51.46875 C 68.828125 52.9375 70.839844 53.570312 72.378906 53.707031 C 72.582031 53.730469 72.808594 53.730469 73.035156 53.730469 C 73.28125 53.730469 73.554688 53.707031 73.824219 53.683594 C 74.007812 53.683594 74.164062 53.660156 74.34375 53.617188 C 75.746094 53.367188 77.421875 52.734375 78.6875 51.46875 C 79.953125 52.734375 81.628906 53.367188 83.03125 53.617188 C 83.210938 53.660156 83.367188 53.683594 83.550781 53.683594 C 83.820312 53.707031 84.09375 53.730469 84.339844 53.730469 C 84.589844 53.730469 84.863281 53.707031 85.132812 53.683594 C 85.3125 53.683594 85.472656 53.660156 85.652344 53.617188 C 87.054688 53.367188 88.730469 52.734375 89.996094 51.46875 C 91.261719 52.734375 92.933594 53.367188 94.335938 53.617188 C 94.519531 53.660156 94.675781 53.683594 94.859375 53.683594 C 95.128906 53.707031 95.402344 53.730469 95.648438 53.730469 C 95.898438 53.730469 96.167969 53.707031 96.441406 53.683594 C 96.621094 53.683594 96.78125 53.660156 96.960938 53.617188 C 98.363281 53.367188 100.035156 52.734375 101.304688 51.46875 C 102.570312 52.734375 104.242188 53.367188 105.644531 53.617188 C 105.824219 53.660156 105.984375 53.683594 106.164062 53.683594 C 106.4375 53.707031 106.707031 53.730469 106.957031 53.730469 C 107.183594 53.730469 107.410156 53.730469 107.613281 53.707031 C 109.152344 53.570312 111.164062 52.9375 112.609375 51.46875 Z M 107.769531 49.160156 C 107.726562 49.183594 107.65625 49.183594 107.613281 49.183594 C 107.410156 49.207031 107.183594 49.207031 106.957031 49.207031 C 106.707031 49.207031 106.4375 49.183594 106.164062 49.160156 C 105.984375 49.160156 105.824219 49.136719 105.644531 49.09375 C 104.785156 48.933594 103.835938 48.640625 102.929688 48.167969 C 101.507812 41.878906 96.800781 28.785156 82.351562 21.570312 C 84.523438 31.339844 81.332031 41.085938 78.640625 46.988281 C 77.375 48.234375 75.726562 48.84375 74.34375 49.09375 C 74.164062 49.136719 74.007812 49.160156 73.824219 49.160156 C 73.554688 49.183594 73.28125 49.207031 73.035156 49.207031 C 72.832031 49.207031 72.625 49.207031 72.445312 49.183594 C 74.707031 45.203125 81.945312 30.867188 76.605469 18.425781 C 76.246094 17.613281 76.425781 16.640625 77.035156 15.984375 C 77.671875 15.328125 78.621094 15.101562 79.457031 15.417969 C 101.371094 23.378906 106.617188 42.691406 107.769531 49.160156 Z M 107.769531 49.160156 " fill-opacity="1" fill-rule="nonzero"/></g><g fill="#ffffff" fill-opacity="1"><g transform="translate(54.482746, 64.733783)"><g><path d="M 5.3125 0.046875 C 5.050781 0.015625 4.378906 0 3.296875 0 L 3.046875 0 L 3.046875 -9.015625 L 1.421875 -9.015625 C 0.941406 -9.015625 0.660156 -8.988281 0.578125 -8.9375 C 0.492188 -8.894531 0.425781 -8.851562 0.375 -8.8125 L 0.34375 -8.828125 L 0.34375 -10.90625 L 0.375 -10.9375 C 0.550781 -10.875 1.035156 -10.84375 1.828125 -10.84375 L 6.9375 -10.84375 C 7.414062 -10.84375 7.695312 -10.867188 7.78125 -10.921875 C 7.875 -10.972656 7.945312 -11.015625 8 -11.046875 L 8.015625 -11.046875 L 8.015625 -8.953125 L 8 -8.9375 C 7.8125 -8.988281 7.328125 -9.015625 6.546875 -9.015625 L 5.3125 -9.015625 Z M 5.3125 0.046875 "/></g></g></g><g fill="#ffffff" fill-opacity="1"><g transform="translate(62.850071, 64.733783)"><g><path d="M 0.796875 -4.1875 C 0.796875 -4.820312 0.898438 -5.410156 1.109375 -5.953125 C 1.328125 -6.503906 1.632812 -6.984375 2.03125 -7.390625 C 2.882812 -8.253906 3.992188 -8.6875 5.359375 -8.6875 C 6.523438 -8.6875 7.457031 -8.300781 8.15625 -7.53125 C 8.84375 -6.789062 9.1875 -5.863281 9.1875 -4.75 C 9.1875 -4.320312 9.15625 -4.023438 9.09375 -3.859375 C 8.550781 -3.710938 7.445312 -3.640625 5.78125 -3.640625 L 2.90625 -3.640625 C 3.039062 -3.054688 3.367188 -2.601562 3.890625 -2.28125 C 4.410156 -1.957031 5.082031 -1.796875 5.90625 -1.796875 C 6.769531 -1.796875 7.507812 -1.953125 8.125 -2.265625 C 8.289062 -2.335938 8.414062 -2.410156 8.5 -2.484375 C 8.488281 -2.253906 8.472656 -2.019531 8.453125 -1.78125 L 8.375 -0.515625 C 7.957031 -0.234375 7.285156 -0.0351562 6.359375 0.078125 C 6.085938 0.109375 5.828125 0.125 5.578125 0.125 C 4.191406 0.125 3.050781 -0.273438 2.15625 -1.078125 C 1.25 -1.890625 0.796875 -2.925781 0.796875 -4.1875 Z M 7.015625 -5.21875 C 6.796875 -6.382812 6.160156 -6.96875 5.109375 -6.96875 C 4.285156 -6.96875 3.660156 -6.613281 3.234375 -5.90625 C 3.097656 -5.6875 2.992188 -5.445312 2.921875 -5.1875 C 3.054688 -5.175781 3.21875 -5.171875 3.40625 -5.171875 L 4.015625 -5.171875 C 4.210938 -5.160156 4.40625 -5.15625 4.59375 -5.15625 L 5.0625 -5.15625 C 5.332031 -5.15625 5.601562 -5.160156 5.875 -5.171875 L 6.546875 -5.1875 C 6.722656 -5.195312 6.878906 -5.207031 7.015625 -5.21875 Z M 7.015625 -5.21875 "/></g></g></g><g fill="#ffffff" fill-opacity="1"><g transform="translate(72.611953, 64.733783)"><g><path d="M 0.796875 -4.1875 C 0.796875 -4.820312 0.898438 -5.410156 1.109375 -5.953125 C 1.328125 -6.503906 1.632812 -6.984375 2.03125 -7.390625 C 2.882812 -8.253906 3.992188 -8.6875 5.359375 -8.6875 C 6.523438 -8.6875 7.457031 -8.300781 8.15625 -7.53125 C 8.84375 -6.789062 9.1875 -5.863281 9.1875 -4.75 C 9.1875 -4.320312 9.15625 -4.023438 9.09375 -3.859375 C 8.550781 -3.710938 7.445312 -3.640625 5.78125 -3.640625 L 2.90625 -3.640625 C 3.039062 -3.054688 3.367188 -2.601562 3.890625 -2.28125 C 4.410156 -1.957031 5.082031 -1.796875 5.90625 -1.796875 C 6.769531 -1.796875 7.507812 -1.953125 8.125 -2.265625 C 8.289062 -2.335938 8.414062 -2.410156 8.5 -2.484375 C 8.488281 -2.253906 8.472656 -2.019531 8.453125 -1.78125 L 8.375 -0.515625 C 7.957031 -0.234375 7.285156 -0.0351562 6.359375 0.078125 C 6.085938 0.109375 5.828125 0.125 5.578125 0.125 C 4.191406 0.125 3.050781 -0.273438 2.15625 -1.078125 C 1.25 -1.890625 0.796875 -2.925781 0.796875 -4.1875 Z M 7.015625 -5.21875 C 6.796875 -6.382812 6.160156 -6.96875 5.109375 -6.96875 C 4.285156 -6.96875 3.660156 -6.613281 3.234375 -5.90625 C 3.097656 -5.6875 2.992188 -5.445312 2.921875 -5.1875 C 3.054688 -5.175781 3.21875 -5.171875 3.40625 -5.171875 L 4.015625 -5.171875 C 4.210938 -5.160156 4.40625 -5.15625 4.59375 -5.15625 L 5.0625 -5.15625 C 5.332031 -5.15625 5.601562 -5.160156 5.875 -5.171875 L 6.546875 -5.1875 C 6.722656 -5.195312 6.878906 -5.207031 7.015625 -5.21875 Z M 7.015625 -5.21875 "/></g></g></g><g fill="#ffffff" fill-opacity="1"><g transform="translate(82.373835, 64.733783)"><g><path d="M 4.0625 0.125 C 2.53125 0.125 1.378906 -0.15625 0.609375 -0.71875 C 0.617188 -0.882812 0.632812 -1.066406 0.65625 -1.265625 L 0.71875 -1.859375 C 0.769531 -2.242188 0.800781 -2.484375 0.8125 -2.578125 C 0.820312 -2.671875 0.828125 -2.722656 0.828125 -2.734375 C 0.835938 -2.742188 0.878906 -2.703125 0.953125 -2.609375 C 1.035156 -2.515625 1.191406 -2.398438 1.421875 -2.265625 C 1.648438 -2.128906 1.914062 -2.007812 2.21875 -1.90625 C 2.863281 -1.675781 3.535156 -1.5625 4.234375 -1.5625 C 5.179688 -1.5625 5.65625 -1.875 5.65625 -2.5 C 5.65625 -2.707031 5.566406 -2.859375 5.390625 -2.953125 C 5.066406 -3.117188 4.59375 -3.242188 3.96875 -3.328125 C 3.34375 -3.410156 2.832031 -3.53125 2.4375 -3.6875 C 2.039062 -3.851562 1.71875 -4.050781 1.46875 -4.28125 C 1.007812 -4.707031 0.78125 -5.269531 0.78125 -5.96875 C 0.78125 -6.820312 1.101562 -7.488281 1.75 -7.96875 C 2.394531 -8.445312 3.289062 -8.6875 4.4375 -8.6875 C 5.570312 -8.6875 6.535156 -8.363281 7.328125 -7.71875 C 7.296875 -7.582031 7.253906 -7.445312 7.203125 -7.3125 C 7.078125 -6.957031 6.988281 -6.703125 6.9375 -6.546875 L 6.75 -6.0625 C 6.738281 -6.019531 6.726562 -6 6.71875 -6 C 6.707031 -6 6.664062 -6.054688 6.59375 -6.171875 C 6.25 -6.566406 5.710938 -6.828125 4.984375 -6.953125 C 4.765625 -6.992188 4.539062 -7.015625 4.3125 -7.015625 C 3.320312 -7.015625 2.828125 -6.710938 2.828125 -6.109375 C 2.828125 -5.910156 2.925781 -5.753906 3.125 -5.640625 C 3.507812 -5.429688 4.035156 -5.28125 4.703125 -5.1875 C 5.378906 -5.09375 5.890625 -4.960938 6.234375 -4.796875 C 6.585938 -4.628906 6.875 -4.425781 7.09375 -4.1875 C 7.476562 -3.769531 7.671875 -3.207031 7.671875 -2.5 C 7.671875 -1.738281 7.363281 -1.117188 6.75 -0.640625 C 6.113281 -0.128906 5.21875 0.125 4.0625 0.125 Z M 4.0625 0.125 "/></g></g></g><g fill="#ffffff" fill-opacity="1"><g transform="translate(90.74116, 64.733783)"><g><path d="M 3.40625 -0.90625 C 3.40625 -0.445312 3.414062 -0.144531 3.4375 0 L 1.40625 0 L 1.40625 -11.65625 L 3.40625 -11.65625 L 3.40625 -7.890625 C 4.113281 -8.421875 4.835938 -8.6875 5.578125 -8.6875 C 6.492188 -8.6875 7.226562 -8.382812 7.78125 -7.78125 C 8.320312 -7.175781 8.59375 -6.378906 8.59375 -5.390625 L 8.59375 -2.140625 C 8.59375 -1.222656 8.601562 -0.671875 8.625 -0.484375 C 8.65625 -0.296875 8.691406 -0.175781 8.734375 -0.125 C 8.785156 -0.0703125 8.828125 -0.0195312 8.859375 0.03125 L 8.84375 0.0625 C 8.40625 0.0195312 8.085938 0 7.890625 0 L 7.3125 0 C 7.125 0 6.882812 0.0078125 6.59375 0.03125 L 6.59375 -4.703125 C 6.59375 -5.453125 6.425781 -6.003906 6.09375 -6.359375 C 5.84375 -6.628906 5.503906 -6.765625 5.078125 -6.765625 C 4.441406 -6.765625 3.882812 -6.398438 3.40625 -5.671875 Z M 3.40625 -0.90625 "/></g></g></g><g fill="#ffffff" fill-opacity="1"><g transform="translate(100.470421, 64.733783)"><g><path d="M 6.828125 -0.5 C 6.054688 -0.0820312 5.359375 0.125 4.734375 0.125 C 4.109375 0.125 3.570312 0.0664062 3.125 -0.046875 C 2.675781 -0.171875 2.296875 -0.347656 1.984375 -0.578125 C 1.359375 -1.035156 1.046875 -1.703125 1.046875 -2.578125 C 1.046875 -3.359375 1.429688 -4.007812 2.203125 -4.53125 C 3.035156 -5.101562 4.171875 -5.390625 5.609375 -5.390625 L 5.9375 -5.375 C 6 -5.363281 6.070312 -5.359375 6.15625 -5.359375 C 6.238281 -5.359375 6.3125 -5.351562 6.375 -5.34375 C 6.332031 -6.207031 5.957031 -6.71875 5.25 -6.875 C 5.019531 -6.914062 4.769531 -6.9375 4.5 -6.9375 C 4.238281 -6.9375 3.984375 -6.910156 3.734375 -6.859375 C 3.484375 -6.816406 3.238281 -6.757812 3 -6.6875 C 2.46875 -6.519531 2.085938 -6.328125 1.859375 -6.109375 L 1.828125 -6.125 L 1.59375 -7.921875 C 2.550781 -8.429688 3.601562 -8.6875 4.75 -8.6875 C 6.519531 -8.6875 7.648438 -8.046875 8.140625 -6.765625 C 8.304688 -6.359375 8.390625 -5.898438 8.390625 -5.390625 L 8.390625 -2.4375 C 8.390625 -1.8125 8.609375 -1.382812 9.046875 -1.15625 L 7.578125 0.203125 C 7.265625 0.0351562 7.015625 -0.195312 6.828125 -0.5 Z M 6.390625 -3.875 C 6.242188 -3.90625 6.085938 -3.921875 5.921875 -3.921875 L 5.609375 -3.921875 C 4.398438 -3.921875 3.632812 -3.648438 3.3125 -3.109375 C 3.21875 -2.953125 3.171875 -2.785156 3.171875 -2.609375 C 3.171875 -2.441406 3.203125 -2.289062 3.265625 -2.15625 C 3.328125 -2.019531 3.429688 -1.910156 3.578125 -1.828125 C 3.859375 -1.660156 4.273438 -1.578125 4.828125 -1.578125 C 5.390625 -1.578125 5.910156 -1.710938 6.390625 -1.984375 C 6.390625 -2.046875 6.390625 -2.109375 6.390625 -2.171875 Z M 6.390625 -3.875 "/></g></g></g><g fill="#ffffff" fill-opacity="1"><g transform="translate(110.199682, 64.733783)"><g><path d="M 3.125 -0.90625 C 3.125 -0.445312 3.132812 -0.144531 3.15625 0 L 1.125 0 L 1.125 -8.515625 L 3.125 -8.515625 L 3.125 -7.890625 C 3.582031 -8.421875 4.066406 -8.6875 4.578125 -8.6875 C 5.085938 -8.6875 5.488281 -8.625 5.78125 -8.5 L 5.640625 -6.296875 L 5.609375 -6.28125 C 5.410156 -6.613281 5.015625 -6.78125 4.421875 -6.78125 C 4.191406 -6.78125 3.957031 -6.703125 3.71875 -6.546875 C 3.488281 -6.398438 3.289062 -6.195312 3.125 -5.9375 Z M 3.125 -0.90625 "/></g></g></g><g fill="#ffffff" fill-opacity="1"><g transform="translate(115.777899, 64.733783)"><g><path d="M 3.3125 -1.078125 C 3.3125 -0.609375 3.332031 -0.25 3.375 0 L 1.328125 0 L 1.328125 -11.65625 L 3.3125 -11.65625 L 3.3125 -4.515625 L 7.046875 -8.515625 L 9.46875 -8.515625 L 6.25 -5.140625 L 8.09375 -2.640625 C 8.488281 -2.003906 8.785156 -1.539062 8.984375 -1.25 L 9.53125 -0.484375 C 9.6875 -0.273438 9.820312 -0.113281 9.9375 0 L 8.640625 0 C 8.160156 0 7.75 0.0390625 7.40625 0.125 L 4.875 -3.59375 L 3.3125 -1.953125 Z M 3.3125 -1.078125 "/></g></g></g><g fill="#ffffff" fill-opacity="1"><g transform="translate(63.643259, 73.932077)"><g><path d="M 1.1875 0 L 1.1875 -2.75 L 0.15625 -2.75 L 0.15625 -3 L 2.484375 -3 L 2.484375 -2.75 L 1.453125 -2.75 L 1.453125 0 Z M 1.1875 0 "/></g></g></g><g fill="#ffffff" fill-opacity="1"><g transform="translate(68.674128, 73.932077)"><g><path d="M 0.484375 0 L 0.484375 -3 L 2.25 -3 L 2.25 -2.75 L 0.75 -2.75 L 0.75 -1.640625 L 2.140625 -1.640625 L 2.140625 -1.40625 L 0.75 -1.40625 L 0.75 -0.25 L 2.296875 -0.25 L 2.296875 0 Z M 0.484375 0 "/></g></g></g><g fill="#ffffff" fill-opacity="1"><g transform="translate(73.662147, 73.932077)"><g><path d="M 1.796875 0.0625 C 1.503906 0.0625 1.242188 -0.00390625 1.015625 -0.140625 C 0.785156 -0.273438 0.601562 -0.457031 0.46875 -0.6875 C 0.34375 -0.925781 0.28125 -1.195312 0.28125 -1.5 C 0.28125 -1.800781 0.34375 -2.066406 0.46875 -2.296875 C 0.601562 -2.535156 0.785156 -2.71875 1.015625 -2.84375 C 1.242188 -2.976562 1.503906 -3.046875 1.796875 -3.046875 C 2.023438 -3.046875 2.234375 -3.003906 2.421875 -2.921875 C 2.617188 -2.835938 2.785156 -2.71875 2.921875 -2.5625 C 3.066406 -2.414062 3.171875 -2.238281 3.234375 -2.03125 L 2.96875 -2.03125 C 2.875 -2.257812 2.722656 -2.441406 2.515625 -2.578125 C 2.304688 -2.722656 2.066406 -2.796875 1.796875 -2.796875 C 1.554688 -2.796875 1.335938 -2.738281 1.140625 -2.625 C 0.953125 -2.519531 0.804688 -2.367188 0.703125 -2.171875 C 0.597656 -1.984375 0.546875 -1.757812 0.546875 -1.5 C 0.546875 -1.25 0.597656 -1.023438 0.703125 -0.828125 C 0.804688 -0.628906 0.953125 -0.472656 1.140625 -0.359375 C 1.335938 -0.253906 1.554688 -0.203125 1.796875 -0.203125 C 2.078125 -0.203125 2.320312 -0.273438 2.53125 -0.421875 C 2.75 -0.566406 2.898438 -0.757812 2.984375 -1 L 3.265625 -1 C 3.203125 -0.789062 3.097656 -0.601562 2.953125 -0.4375 C 2.816406 -0.28125 2.648438 -0.15625 2.453125 -0.0625 C 2.253906 0.0195312 2.035156 0.0625 1.796875 0.0625 Z M 1.796875 0.0625 "/></g></g></g><g fill="#ffffff" fill-opacity="1"><g transform="translate(79.562887, 73.932077)"><g><path d="M 2.5 0 L 2.5 -1.40625 L 0.75 -1.40625 L 0.75 0 L 0.484375 0 L 0.484375 -3 L 0.75 -3 L 0.75 -1.65625 L 2.5 -1.65625 L 2.5 -3 L 2.765625 -3 L 2.765625 0 Z M 2.5 0 "/></g></g></g><g fill="#ffffff" fill-opacity="1"><g transform="translate(85.189381, 73.932077)"><g><path d="M 0.484375 0 L 0.484375 -3 L 0.734375 -3 L 2.546875 -0.453125 L 2.546875 -3 L 2.8125 -3 L 2.8125 0 L 2.5625 0 L 0.734375 -2.546875 L 0.734375 0 Z M 0.484375 0 "/></g></g></g><g fill="#ffffff" fill-opacity="1"><g transform="translate(90.863012, 73.932077)"><g><path d="M 1.8125 0.0625 C 1.507812 0.0625 1.242188 -0.00390625 1.015625 -0.140625 C 0.785156 -0.273438 0.601562 -0.457031 0.46875 -0.6875 C 0.34375 -0.925781 0.28125 -1.195312 0.28125 -1.5 C 0.28125 -1.800781 0.34375 -2.066406 0.46875 -2.296875 C 0.601562 -2.535156 0.785156 -2.71875 1.015625 -2.84375 C 1.242188 -2.976562 1.507812 -3.046875 1.8125 -3.046875 C 2.125 -3.046875 2.394531 -2.976562 2.625 -2.84375 C 2.851562 -2.71875 3.03125 -2.535156 3.15625 -2.296875 C 3.289062 -2.066406 3.359375 -1.800781 3.359375 -1.5 C 3.359375 -1.195312 3.289062 -0.925781 3.15625 -0.6875 C 3.03125 -0.457031 2.851562 -0.273438 2.625 -0.140625 C 2.394531 -0.00390625 2.125 0.0625 1.8125 0.0625 Z M 0.546875 -1.5 C 0.546875 -1.25 0.597656 -1.023438 0.703125 -0.828125 C 0.804688 -0.628906 0.953125 -0.472656 1.140625 -0.359375 C 1.335938 -0.253906 1.5625 -0.203125 1.8125 -0.203125 C 2.070312 -0.203125 2.296875 -0.253906 2.484375 -0.359375 C 2.679688 -0.472656 2.832031 -0.628906 2.9375 -0.828125 C 3.050781 -1.023438 3.109375 -1.25 3.109375 -1.5 C 3.109375 -1.757812 3.050781 -1.984375 2.9375 -2.171875 C 2.832031 -2.367188 2.679688 -2.519531 2.484375 -2.625 C 2.296875 -2.738281 2.070312 -2.796875 1.8125 -2.796875 C 1.5625 -2.796875 1.335938 -2.738281 1.140625 -2.625 C 0.953125 -2.519531 0.804688 -2.367188 0.703125 -2.171875 C 0.597656 -1.984375 0.546875 -1.757812 0.546875 -1.5 Z M 0.546875 -1.5 "/></g></g></g><g fill="#ffffff" fill-opacity="1"><g transform="translate(96.883733, 73.932077)"><g><path d="M 0.484375 0 L 0.484375 -3 L 0.75 -3 L 0.75 -0.25 L 2.265625 -0.25 L 2.265625 0 Z M 0.484375 0 "/></g></g></g><g fill="#ffffff" fill-opacity="1"><g transform="translate(101.674636, 73.932077)"><g><path d="M 1.8125 0.0625 C 1.507812 0.0625 1.242188 -0.00390625 1.015625 -0.140625 C 0.785156 -0.273438 0.601562 -0.457031 0.46875 -0.6875 C 0.34375 -0.925781 0.28125 -1.195312 0.28125 -1.5 C 0.28125 -1.800781 0.34375 -2.066406 0.46875 -2.296875 C 0.601562 -2.535156 0.785156 -2.71875 1.015625 -2.84375 C 1.242188 -2.976562 1.507812 -3.046875 1.8125 -3.046875 C 2.125 -3.046875 2.394531 -2.976562 2.625 -2.84375 C 2.851562 -2.71875 3.03125 -2.535156 3.15625 -2.296875 C 3.289062 -2.066406 3.359375 -1.800781 3.359375 -1.5 C 3.359375 -1.195312 3.289062 -0.925781 3.15625 -0.6875 C 3.03125 -0.457031 2.851562 -0.273438 2.625 -0.140625 C 2.394531 -0.00390625 2.125 0.0625 1.8125 0.0625 Z M 0.546875 -1.5 C 0.546875 -1.25 0.597656 -1.023438 0.703125 -0.828125 C 0.804688 -0.628906 0.953125 -0.472656 1.140625 -0.359375 C 1.335938 -0.253906 1.5625 -0.203125 1.8125 -0.203125 C 2.070312 -0.203125 2.296875 -0.253906 2.484375 -0.359375 C 2.679688 -0.472656 2.832031 -0.628906 2.9375 -0.828125 C 3.050781 -1.023438 3.109375 -1.25 3.109375 -1.5 C 3.109375 -1.757812 3.050781 -1.984375 2.9375 -2.171875 C 2.832031 -2.367188 2.679688 -2.519531 2.484375 -2.625 C 2.296875 -2.738281 2.070312 -2.796875 1.8125 -2.796875 C 1.5625 -2.796875 1.335938 -2.738281 1.140625 -2.625 C 0.953125 -2.519531 0.804688 -2.367188 0.703125 -2.171875 C 0.597656 -1.984375 0.546875 -1.757812 0.546875 -1.5 Z M 0.546875 -1.5 "/></g></g></g><g fill="#ffffff" fill-opacity="1"><g transform="translate(107.695357, 73.932077)"><g><path d="M 1.796875 0.0625 C 1.492188 0.0625 1.226562 -0.00390625 1 -0.140625 C 0.769531 -0.273438 0.59375 -0.457031 0.46875 -0.6875 C 0.34375 -0.925781 0.28125 -1.195312 0.28125 -1.5 C 0.28125 -1.800781 0.34375 -2.066406 0.46875 -2.296875 C 0.59375 -2.535156 0.769531 -2.71875 1 -2.84375 C 1.226562 -2.976562 1.488281 -3.046875 1.78125 -3.046875 C 2.007812 -3.046875 2.21875 -3.003906 2.40625 -2.921875 C 2.601562 -2.835938 2.769531 -2.722656 2.90625 -2.578125 C 3.039062 -2.429688 3.144531 -2.265625 3.21875 -2.078125 L 2.921875 -2.078125 C 2.828125 -2.296875 2.679688 -2.46875 2.484375 -2.59375 C 2.296875 -2.726562 2.066406 -2.796875 1.796875 -2.796875 C 1.546875 -2.796875 1.328125 -2.738281 1.140625 -2.625 C 0.953125 -2.519531 0.804688 -2.367188 0.703125 -2.171875 C 0.597656 -1.984375 0.546875 -1.757812 0.546875 -1.5 C 0.546875 -1.25 0.597656 -1.023438 0.703125 -0.828125 C 0.804688 -0.628906 0.953125 -0.472656 1.140625 -0.359375 C 1.328125 -0.253906 1.546875 -0.203125 1.796875 -0.203125 C 2.023438 -0.203125 2.226562 -0.25 2.40625 -0.34375 C 2.582031 -0.445312 2.722656 -0.582031 2.828125 -0.75 C 2.941406 -0.914062 3.003906 -1.109375 3.015625 -1.328125 L 1.703125 -1.328125 L 1.703125 -1.578125 L 3.296875 -1.578125 C 3.304688 -1.253906 3.242188 -0.96875 3.109375 -0.71875 C 2.984375 -0.476562 2.804688 -0.285156 2.578125 -0.140625 C 2.359375 -0.00390625 2.097656 0.0625 1.796875 0.0625 Z M 1.796875 0.0625 "/></g></g></g><g fill="#ffffff" fill-opacity="1"><g transform="translate(113.638948, 73.932077)"><g><path d="M 1.234375 0 L 1.234375 -1.09375 L 0.09375 -3 L 0.390625 -3 L 1.359375 -1.375 L 2.328125 -3 L 2.625 -3 L 1.484375 -1.109375 L 1.484375 0 Z M 1.234375 0 "/></g></g></g></svg>